<?xml version="1.0" encoding="UTF-8"?>
<!DOCTYPE svg PUBLIC "-//W3C//DTD SVG 1.1//EN" "http://www.w3.org/Graphics/SVG/1.1/DTD/svg11.dtd">
<!-- Creator: CorelDRAW 2019 (64-Bit) -->
<svg xmlns="http://www.w3.org/2000/svg" xml:space="preserve" width="388px" height="626px" version="1.1" style="shape-rendering:geometricPrecision; text-rendering:geometricPrecision; image-rendering:optimizeQuality; fill-rule:evenodd; clip-rule:evenodd"
viewBox="0 0 9.34 15.06"
 xmlns:xlink="http://www.w3.org/1999/xlink">
 <defs>
  <style type="text/css">
   <![CDATA[
    .fil0 {fill:#505050}
   ]]>
  </style>
 </defs>
 <g id="Слой_x0020_1">
  <metadata id="CorelCorpID_0Corel-Layer"/>
  <path class="fil0" d="M0 7.26c0,0.53 -0.05,0.75 0.26,1.2 0.09,0.13 0.31,0.33 0.44,0.45l4.57 4.57c0.22,0.22 1.17,1.22 1.39,1.35 0.63,0.4 1.28,0.25 1.79,-0.23 0.04,-0.04 0.02,-0.02 0.06,-0.05 0.56,-0.5 0.83,-0.78 0.83,-1.53 0,-0.41 -0.19,-0.68 -0.41,-0.89 -0.45,-0.45 -4.46,-4.42 -4.57,-4.6 0.11,-0.17 4.11,-4.14 4.55,-4.58 0.36,-0.35 0.43,-0.6 0.43,-1.1 0,-0.57 -0.56,-1.15 -0.92,-1.44 -0.52,-0.4 -1.08,-0.58 -1.71,-0.21 -0.31,0.18 -2.93,2.87 -3.25,3.18l-3.19 3.2c-0.11,0.14 -0.27,0.44 -0.27,0.68z"/>
 </g>
</svg>
