<?xml version="1.0" encoding="UTF-8"?>
<!DOCTYPE svg PUBLIC "-//W3C//DTD SVG 1.1//EN" "http://www.w3.org/Graphics/SVG/1.1/DTD/svg11.dtd">
<!-- Creator: CorelDRAW 2019 (64-Bit) -->
<svg xmlns="http://www.w3.org/2000/svg" xml:space="preserve" width="388px" height="626px" version="1.1" style="shape-rendering:geometricPrecision; text-rendering:geometricPrecision; image-rendering:optimizeQuality; fill-rule:evenodd; clip-rule:evenodd"
viewBox="0 0 8.31 13.41"
 xmlns:xlink="http://www.w3.org/1999/xlink">
 <defs>
  <style type="text/css">
   <![CDATA[
    .fil0 {fill:#505050}
   ]]>
  </style>
 </defs>
 <g id="Слой_x0020_1">
  <metadata id="CorelCorpID_0Corel-Layer"/>
  <path class="fil0" d="M8.31 6.46c0,0.47 0.05,0.67 -0.23,1.07 -0.08,0.12 -0.28,0.29 -0.39,0.4l-4.07 4.07c-0.2,0.2 -1.05,1.08 -1.24,1.2 -0.56,0.36 -1.14,0.22 -1.59,-0.2 -0.04,-0.04 -0.02,-0.02 -0.06,-0.05 -0.5,-0.44 -0.73,-0.69 -0.73,-1.36 0,-0.36 0.17,-0.61 0.36,-0.79 0.4,-0.4 3.97,-3.94 4.07,-4.1 -0.1,-0.15 -3.66,-3.68 -4.05,-4.07 -0.32,-0.31 -0.38,-0.54 -0.38,-0.99 0,-0.5 0.49,-1.02 0.82,-1.27 0.45,-0.36 0.96,-0.52 1.52,-0.19 0.27,0.16 2.61,2.55 2.89,2.83l2.84 2.85c0.1,0.12 0.24,0.39 0.24,0.6z"/>
 </g>
</svg>
