<?xml version="1.0" encoding="UTF-8"?>
<!DOCTYPE svg PUBLIC "-//W3C//DTD SVG 1.1//EN" "http://www.w3.org/Graphics/SVG/1.1/DTD/svg11.dtd">
<!-- Creator: CorelDRAW 2019 (64-Bit) -->
<svg xmlns="http://www.w3.org/2000/svg" xml:space="preserve" width="763px" height="1385px" version="1.1" style="shape-rendering:geometricPrecision; text-rendering:geometricPrecision; image-rendering:optimizeQuality; fill-rule:evenodd; clip-rule:evenodd"
viewBox="0 0 96.72 175.63"
 xmlns:xlink="http://www.w3.org/1999/xlink">
 <defs>
  <style type="text/css">
   <![CDATA[
    .fil0 {fill:#FEFEFE;fill-rule:nonzero}
   ]]>
  </style>
 </defs>
 <g id="Слой_x0020_1">
  <metadata id="CorelCorpID_0Corel-Layer"/>
  <path class="fil0" d="M46.17 4.46c-3.37,0.6 -6.33,1.87 -8.66,3.82 -2.2,1.84 -3.88,4.31 -4.85,7.41 -0.78,2.46 -0.95,4.93 -0.62,7.27 0.44,3.09 1.76,5.98 3.73,8.33 1.96,2.35 4.56,4.16 7.56,5.11 2.23,0.7 4.69,0.93 7.28,0.56l0.34 -0.05c3.99,-0.66 7.76,-2.91 10.37,-6.2 2.6,-3.26 4.03,-7.54 3.36,-12.26 -0.02,-0.14 -0.04,-0.27 -0.05,-0.38l-0.01 0 -0.02 -0.16c-0.7,-3.92 -2.95,-7.69 -6.2,-10.28 -3.22,-2.56 -7.42,-3.97 -12.06,-3.2l-0.17 0.03 0 0zm-11.37 0.58c2.92,-2.44 6.55,-4.02 10.64,-4.74l0 0c0.05,-0.01 0.16,-0.03 0.21,-0.03 5.93,-0.98 11.28,0.8 15.38,4.06 4.05,3.23 6.86,7.94 7.73,12.85 -0.01,0 0.02,0.17 0.03,0.18l-0.01 0 0.01 0.02c0.03,0.18 0.05,0.35 0.07,0.49 0.84,5.96 -0.96,11.35 -4.23,15.47 -3.26,4.09 -7.98,6.91 -13,7.73 -0.16,0.03 -0.31,0.05 -0.44,0.07 -3.24,0.46 -6.31,0.17 -9.11,-0.71 -3.8,-1.2 -7.09,-3.48 -9.55,-6.43 -2.46,-2.94 -4.11,-6.57 -4.67,-10.46 -0.41,-2.95 -0.2,-6.04 0.77,-9.11 1.23,-3.91 3.36,-7.04 6.17,-9.39zm57.69 96.07l0 -2.38c-0.47,-0.72 -0.92,-1.52 -1.36,-2.3 -0.41,-0.74 -0.82,-1.46 -1.27,-2.14l-0.01 -0.01 0 0.01 -25.35 -38.09c-0.04,-0.06 -0.08,-0.13 -0.11,-0.19l0 0 -0.04 -0.06c-0.93,-1.79 -1.41,-2.72 -2.77,-3.83 -2.9,-2.35 -8.06,-3.45 -13.18,-3.5 -5.45,-0.05 -10.69,1.07 -12.88,3.13 -2.07,1.95 -2.36,2.51 -2.91,3.59 -0.34,0.68 -0.76,1.51 -1.56,2.78 -4.09,6.5 -8.89,13.49 -13.67,20.44 -4.12,6.01 -8.23,11.99 -11.81,17.55 -1.74,2.7 -1.61,5.09 -0.54,6.77 0.44,0.68 1.02,1.25 1.69,1.7 0.69,0.45 1.46,0.76 2.27,0.91 1.94,0.35 4.08,-0.3 5.51,-2.42 1.26,-1.86 1.67,-2.48 2.07,-3.08 1.38,-2.06 2.72,-4.07 4.35,-6.4 0.16,-0.23 0.68,-1.02 1.29,-1.96 1.71,-2.62 4.21,-6.44 5.46,-7.43 0.91,-0.73 2.24,-0.58 2.97,0.33 0.34,0.44 0.49,0.98 0.45,1.5 -0.56,16.88 -0.39,34.33 -0.23,51.62 0.08,8.53 0.16,17.02 0.15,25.4l0.01 0 0 0.08 -0.01 0c0,3.05 0,4.79 1.62,6.36 0.71,0.68 1.57,1.25 2.58,1.55 0.85,0.25 1.83,0.31 2.93,0.08 0.81,-0.17 1.54,-0.57 2.16,-1.09 0.71,-0.6 1.25,-1.34 1.56,-2.08 0.73,-1.71 0.57,-13.46 0.43,-24.74 -0.12,-9.12 -0.24,-17.93 0.18,-21.46 0.13,-1.14 1.13,-1.96 2.26,-1.87l7.38 0.08c1.02,0.01 1.87,0.76 2.05,1.73 0.58,3.16 0.41,11.48 0.3,16.8 -0.02,1.16 -0.04,2.18 -0.05,2.92 -0.01,0.71 -0.03,1.72 -0.07,2.99 -0.19,7.01 -0.58,21.82 0.74,24.04 0.73,1.24 2.09,2.24 3.6,2.7 0.95,0.29 1.94,0.36 2.86,0.14 0.85,-0.21 1.67,-0.7 2.33,-1.53 1.09,-1.39 1.81,-3.7 1.79,-7.22 -0.13,-17.28 -0.09,-34.58 -0.06,-51.88 0.02,-6.38 0.03,-12.81 0.03,-24.8 0,-1.17 0.95,-2.12 2.12,-2.12 0.64,0 1.22,0.3 1.61,0.76 1.86,1.96 7.56,10.72 10.27,14.91l1.04 1.59c0.03,0.03 0.05,0.07 0.08,0.11l0.21 0.34c1.42,2.18 2.72,4.17 6.21,4.08 2.77,-0.08 3.74,-1.72 4.81,-3.54 0.17,-0.3 0.34,-0.59 0.51,-0.87zm4.23 -3.01l0 3.6 -0.01 0c0.01,0.39 -0.1,0.79 -0.33,1.14 -0.31,0.49 -0.54,0.88 -0.77,1.27 -1.69,2.88 -3.22,5.48 -8.34,5.62 -5.84,0.15 -7.75,-2.78 -9.84,-6l-0.21 -0.32 -0.08 -0.11c-0.33,-0.51 -0.26,-0.41 -1.04,-1.61 -1.56,-2.39 -4.13,-6.35 -6.25,-9.49 -0.01,5.07 -0.02,11.75 -0.04,18.45 -0.03,17.29 -0.07,34.59 0.06,51.87 0.03,4.57 -1.05,7.75 -2.7,9.84 -1.29,1.63 -2.91,2.59 -4.64,3.02 -1.68,0.4 -3.44,0.29 -5.07,-0.21 -2.5,-0.76 -4.75,-2.45 -6.02,-4.58 -1.92,-3.26 -1.51,-18.89 -1.31,-26.29 0.03,-1.29 0.06,-2.33 0.07,-2.94 0.01,-0.82 0.03,-1.82 0.05,-2.95 0.09,-4.33 0.22,-10.69 -0.04,-14.25l-3.69 -0.04c-0.22,4.1 -0.12,11.47 -0.02,19.04 0.15,11.71 0.31,23.91 -0.76,26.42 -0.56,1.34 -1.51,2.65 -2.72,3.67 -1.12,0.95 -2.48,1.67 -4.02,2 -1.83,0.38 -3.5,0.27 -4.98,-0.17 -1.72,-0.5 -3.16,-1.44 -4.31,-2.55 -2.91,-2.81 -2.91,-5.21 -2.91,-9.4l-0.01 0 0 -0.08 0.01 0c0.01,-8.35 -0.07,-16.84 -0.15,-25.36 -0.14,-15.12 -0.29,-30.35 0.05,-45.2l-0.96 1.45c-0.5,0.77 -0.93,1.42 -1.37,2.06 -1.5,2.14 -2.88,4.21 -4.3,6.34l-2.07 3.09c-2.5,3.7 -6.3,4.84 -9.77,4.2 -1.36,-0.25 -2.66,-0.78 -3.82,-1.54 -1.16,-0.76 -2.17,-1.76 -2.93,-2.94 -1.89,-2.97 -2.23,-7.01 0.54,-11.32 3.61,-5.6 7.73,-11.61 11.88,-17.65 4.78,-6.96 9.58,-13.95 13.58,-20.3 0.68,-1.1 1.06,-1.84 1.37,-2.43 0.77,-1.53 1.17,-2.32 3.78,-4.77 2.98,-2.8 9.37,-4.33 15.81,-4.27 5.96,0.05 12.11,1.45 15.8,4.44 2.05,1.67 2.67,2.86 3.86,5.14l25.27 37.97 -0.01 0c0.5,0.73 0.96,1.56 1.44,2.4 0.45,0.81 0.92,1.63 1.49,2.46 0.27,0.36 0.43,0.8 0.43,1.28z"/>
 </g>
</svg>
