<?xml version="1.0" encoding="UTF-8"?>
<!DOCTYPE svg PUBLIC "-//W3C//DTD SVG 1.1//EN" "http://www.w3.org/Graphics/SVG/1.1/DTD/svg11.dtd">
<!-- Creator: CorelDRAW 2019 (64-Bit) -->
<svg xmlns="http://www.w3.org/2000/svg" xml:space="preserve" width="26px" height="31px" version="1.1" style="shape-rendering:geometricPrecision; text-rendering:geometricPrecision; image-rendering:optimizeQuality; fill-rule:evenodd; clip-rule:evenodd"
viewBox="0 0 0.76 0.92"
 xmlns:xlink="http://www.w3.org/1999/xlink">
 <defs>
  <style type="text/css">
   <![CDATA[
    .fil0 {fill:#FEFEFE}
   ]]>
  </style>
 </defs>
 <g id="Слой_x0020_1">
  <metadata id="CorelCorpID_0Corel-Layer"/>
  <path class="fil0" d="M0.09 0.92l0.52 0c0.01,-0.01 0.03,-0.01 0.04,-0.01 0.03,-0.02 0.05,-0.05 0.06,-0.09 0,-0.04 0,-0.15 -0.01,-0.19 0,0.01 -0.01,0.01 -0.01,0.02l-0.05 0.03c-0.01,0.01 0,0.01 0,0.03 0,0.16 0.01,0.14 -0.18,0.14l-0.31 0c-0.07,0 -0.08,0 -0.08,-0.08l0 -0.62c0,-0.1 0,-0.08 0.23,-0.08 0.05,0 0.1,0 0.15,0 0.04,0 0.14,0 0.16,0 0.04,0.01 0.03,0.08 0.03,0.13 0,0.03 -0.01,0.03 0.02,0.05 0.02,0.01 0.03,0.03 0.04,0.04 0.01,-0.04 0.01,-0.15 0.01,-0.19 -0.01,-0.03 -0.02,-0.05 -0.03,-0.07 -0.02,-0.02 -0.05,-0.03 -0.06,-0.03l-0.53 0c-0.02,0.01 -0.03,0.01 -0.05,0.02 -0.05,0.04 -0.04,0.11 -0.04,0.17 0,0.18 0,0.36 0,0.54 0,0.05 -0.01,0.09 0.01,0.13 0.03,0.04 0.06,0.04 0.08,0.06l0 0zm0.37 -0.66c0,0 0,0.08 0,0.09 -0.03,0 -0.21,0 -0.22,0.01 -0.04,0 -0.03,0.12 -0.03,0.16 0,0.03 0.01,0.04 0.03,0.04 0.01,0.01 0.19,0.01 0.22,0.01 0,0.02 -0.01,0.07 0,0.08 0,0.02 0.01,0.05 0.03,0.04 0.01,-0.01 0.04,-0.03 0.04,-0.04 0.01,0 0.01,-0.01 0.02,-0.01l0.21 -0.18c-0.01,-0.01 -0.03,-0.02 -0.04,-0.03l-0.07 -0.07c-0.03,-0.02 -0.13,-0.11 -0.15,-0.13 -0.02,-0.01 -0.04,0 -0.04,0.03l0 0z"/>
 </g>
</svg>
