<?xml version="1.0" encoding="UTF-8"?>
<!DOCTYPE svg PUBLIC "-//W3C//DTD SVG 1.1//EN" "http://www.w3.org/Graphics/SVG/1.1/DTD/svg11.dtd">
<!-- Creator: CorelDRAW 2019 (64-Bit) -->
<svg xmlns="http://www.w3.org/2000/svg" xml:space="preserve" width="762px" height="1356px" version="1.1" style="shape-rendering:geometricPrecision; text-rendering:geometricPrecision; image-rendering:optimizeQuality; fill-rule:evenodd; clip-rule:evenodd"
viewBox="0 0 74.73 132.98"
 xmlns:xlink="http://www.w3.org/1999/xlink">
 <defs>
  <style type="text/css">
   <![CDATA[
    .fil0 {fill:#FEFEFE;fill-rule:nonzero}
   ]]>
  </style>
 </defs>
 <g id="Слой_x0020_1">
  <metadata id="CorelCorpID_0Corel-Layer"/>
  <path class="fil0" d="M35.92 93.22l2.83 0.07c-0.23,5.27 -0.15,10.83 -0.07,16.34 0.06,3.53 0.11,7.03 0.08,10.41 -0.01,0.55 -0.02,1.12 -0.03,1.67 -0.11,5.02 -0.19,8.5 4.54,10.57 0.84,0.37 1.69,0.58 2.51,0.66 1.63,0.17 3.17,-0.21 4.44,-0.96 1.28,-0.76 2.3,-1.9 2.91,-3.29 0.29,-0.68 0.49,-1.41 0.57,-2.18 0,-0.08 0.01,-0.15 0,-0.22l0.21 -33.24 1.86 -0.02c0.09,0 0.18,-0.01 0.26,-0.03l1.49 -0.23c0.63,-0.1 1.13,-0.55 1.31,-1.13l0 0c0.91,-2.96 -0.79,-8.87 -2.4,-14.47 -0.84,-2.93 -1.66,-5.77 -2.02,-7.87l0.28 0.41c1.11,1.66 1.58,2.36 2.13,3.17l0.83 1.23c0.3,0.44 0.59,0.91 0.89,1.39 1.85,2.97 4,6.44 8.3,6.58 2.19,0.07 4.04,-0.6 5.41,-1.78 1.43,-1.24 2.31,-3.03 2.46,-5.09 0.25,-3.3 -1.89,-6.34 -4.35,-9.82 -0.74,-1.05 -1.52,-2.15 -2.24,-3.27 -1.3,-2.04 -2.9,-4.38 -4.45,-6.64l-1.67 -2.45c-1.48,-2.18 -2.69,-3.93 -3.95,-5.76 -0.37,-0.54 -0.68,-0.99 -2.03,-2.96 -1.19,-1.72 -2.09,-3.2 -2.87,-4.48 -3.77,-6.17 -4.88,-8.01 -16.5,-8.05 -10.21,-0.05 -11.78,2.48 -16.02,9.32 -0.77,1.25 -1.64,2.65 -2.72,4.25 -0.18,0.28 -0.82,1.21 -1.69,2.48 -4.57,6.69 -15.83,23.14 -16.15,25.55 -0.13,1 -0.08,1.96 0.13,2.85 0.35,1.52 1.16,2.86 2.27,3.88 1.11,1.02 2.53,1.71 4.12,1.92 0.93,0.12 1.91,0.08 2.92,-0.15 3.41,-0.8 7.01,-6.58 9.5,-10.58 0.46,-0.73 0.87,-1.39 1.21,-1.92 -0.28,1.57 -0.68,3.05 -1.11,4.67 -0.25,0.94 -0.51,1.92 -0.81,3.12 -0.52,2.13 -1.05,4.13 -1.49,5.79 -0.82,3.06 -1.34,5.03 -1.34,6.44 0,3.12 1.43,3.7 5.23,3.79 0.18,4.16 0.1,14.93 0.05,21.77l-0.03 5.1c0,1.01 -0.01,1.43 -0.01,1.84 -0.09,4.89 -0.15,8.53 4.6,10.42 0.82,0.32 1.64,0.51 2.43,0.58 1.68,0.15 3.26,-0.23 4.56,-1 1.32,-0.79 2.36,-1.98 2.93,-3.44 0.25,-0.62 0.41,-1.29 0.48,-2 0,-0.05 0,-0.11 0,-0.17l0.21 -33.07zm8.66 -87.78c-0.18,1.78 -0.6,3 -0.95,3.99 -0.01,0.04 -0.03,0.07 -0.04,0.1 -0.01,0.05 -0.02,0.07 0.13,0.15 7.18,3.96 6.57,9.14 5.98,14.09 -0.25,2.11 -0.49,4.14 0.52,5.15 1.28,1.28 2.9,1.83 4.44,1.94 -3.22,-3.63 -2.99,-9.54 -2.81,-14.27 0.06,-1.61 0.12,-3.04 -0.02,-3.83 -0.55,-3.29 -1.55,-5.67 -3.07,-7.11 -1.02,-0.96 -2.39,-1.54 -4.13,-1.74 0.06,0.32 -0.01,1.18 -0.05,1.53zm-12.01 7.23c-2,1.69 -4.18,3.52 -6.08,8.11 -0.49,1.19 -0.64,2.33 -0.8,3.58 -0.22,1.72 -0.49,3.78 -2.46,5.75 -1.63,1.63 -4.21,1.19 -6.22,0.23 3.96,-3.22 4.73,-10.93 5.26,-16.17 0.11,-1.17 0.21,-2.19 0.34,-2.91 0.46,-2.72 1.94,-4.68 3.97,-5.96 2.55,-1.61 5.99,-2.23 9.49,-1.98 0.26,0.02 0.44,0 0.56,-0.02 -0.54,6.42 -2.19,7.8 -4.06,9.37zm7.35 -9.47c0.11,-1.39 0.07,-2.87 -3.62,-3.14 -7.8,-0.56 -15.57,2.7 -16.91,10.66 -0.73,4.3 -0.74,17.85 -6.76,17.85 -5.24,0 6.63,10.13 12.91,3.85 4,-4 2.91,-7.84 3.96,-10.4 3.89,-9.42 9.37,-5.15 10.42,-18.82zm1.23 2.25c0.14,-1.39 -0.12,-4.46 1.04,-4.51 7.41,-0.33 11.26,3.58 12.61,11.54 0.72,4.3 -2.38,16.25 5.33,18.17 5.08,1.26 -6.18,6.98 -12.46,0.7 -4.93,-4.93 3.39,-13.51 -5.7,-18.52 -3.86,-2.12 -1.25,-3.15 -0.82,-7.38zm-8.69 120.78c-0.04,0.37 -0.13,0.71 -0.25,1.03 -0.31,0.77 -0.87,1.41 -1.58,1.84 -0.73,0.43 -1.63,0.64 -2.6,0.56 -0.49,-0.05 -1,-0.17 -1.51,-0.37 -2.66,-1.06 -2.62,-3.74 -2.56,-7.33 0.02,-0.8 0.03,-1.62 0.03,-1.9 0,-1.95 0.01,-3.36 0.02,-5.08 0.06,-7.84 0.15,-20.75 -0.16,-23.49 -0.04,-0.86 -0.76,-1.55 -1.63,-1.55 -2.55,0 -3.48,-0.05 -3.48,-0.54 0,-1 0.48,-2.8 1.22,-5.59 0.42,-1.55 0.91,-3.41 1.51,-5.87 0.25,-1.02 0.53,-2.06 0.79,-3.05 0.97,-3.63 1.75,-6.57 1.71,-11.29 0.02,-0.53 -0.22,-1.06 -0.68,-1.39 -0.74,-0.52 -1.76,-0.35 -2.28,0.39l-3.11 4.39c-0.49,0.71 -1.04,1.59 -1.66,2.59 -2.2,3.52 -5.38,8.63 -7.47,9.12 -0.62,0.14 -1.22,0.17 -1.76,0.1 -0.91,-0.12 -1.72,-0.51 -2.34,-1.09 -0.63,-0.57 -1.08,-1.34 -1.29,-2.22 -0.12,-0.53 -0.15,-1.1 -0.08,-1.68 0.22,-1.64 11.17,-17.63 15.62,-24.14 0.76,-1.11 1.32,-1.93 1.7,-2.5 1.08,-1.61 1.98,-3.07 2.78,-4.36 3.54,-5.7 4.85,-7.81 13.24,-7.78 9.79,0.04 10.69,1.52 13.73,6.5 0.8,1.32 1.74,2.85 2.95,4.62l2.05 2.97c1.41,2.05 2.76,4.01 3.93,5.74 1.05,1.54 1.36,2 1.67,2.46 1.54,2.24 3.12,4.55 4.41,6.56 0.76,1.19 1.55,2.31 2.31,3.39 2.1,2.97 3.93,5.56 3.76,7.7 -0.09,1.19 -0.56,2.2 -1.34,2.87 -0.76,0.66 -1.84,1.03 -3.17,0.98 -2.54,-0.08 -4.2,-2.75 -5.63,-5.04 -0.33,-0.53 -0.65,-1.05 -0.96,-1.5l-0.82 -1.23c-0.91,-1.33 -1.67,-2.46 -2.14,-3.16 -0.27,-0.41 -0.41,-0.62 -0.57,-0.85 -0.81,-1.18 -1.85,-2.71 -2.31,-3.69l0 0c-0.11,-0.23 -0.27,-0.44 -0.48,-0.61l-0.82 -0.63c-0.27,-0.21 -0.61,-0.34 -0.97,-0.34 -0.9,-0.02 -1.64,0.7 -1.66,1.6 0,0.27 -0.02,0.63 -0.03,0.99 -0.07,1.51 -0.14,3 0.46,4.26 0.27,2.44 1.25,5.88 2.28,9.44 1.29,4.49 2.64,9.2 2.56,11.68l-0.23 0.03 -3.35 0.03c-0.89,0.01 -1.61,0.73 -1.61,1.63l-0.21 34.81c-0.05,0.41 -0.15,0.79 -0.31,1.15 -0.33,0.75 -0.88,1.37 -1.58,1.78 -0.7,0.42 -1.55,0.62 -2.47,0.53 -0.48,-0.05 -0.99,-0.18 -1.51,-0.41 -2.74,-1.19 -2.68,-3.78 -2.6,-7.51 0.01,-0.54 0.03,-1.09 0.03,-1.71 0.04,-3.42 -0.02,-6.94 -0.07,-10.48 -0.09,-6.01 -0.18,-12.09 0.15,-17.81l0 0 0 -0.05c0.02,-0.9 -0.7,-1.65 -1.59,-1.66l-6.19 -0.14c-0.9,-0.01 -1.63,0.72 -1.63,1.62l-0.22 34.68z"/>
 </g>
</svg>
