<?xml version="1.0" encoding="UTF-8"?>
<!DOCTYPE svg PUBLIC "-//W3C//DTD SVG 1.1//EN" "http://www.w3.org/Graphics/SVG/1.1/DTD/svg11.dtd">
<!-- Creator: CorelDRAW 2019 (64-Bit) -->
<svg xmlns="http://www.w3.org/2000/svg" xml:space="preserve" width="2088px" height="2068px" version="1.1" style="shape-rendering:geometricPrecision; text-rendering:geometricPrecision; image-rendering:optimizeQuality; fill-rule:evenodd; clip-rule:evenodd"
viewBox="0 0 371.58 368.03"
 xmlns:xlink="http://www.w3.org/1999/xlink">
 <defs>
  <style type="text/css">
   <![CDATA[
    .fil0 {fill:#2B2A29}
   ]]>
  </style>
 </defs>
 <g id="Слой_x0020_1">
  <metadata id="CorelCorpID_0Corel-Layer"/>
  <path class="fil0" d="M213.67 0c87.21,0 157.91,70.7 157.91,157.91 0,87.21 -70.7,157.91 -157.91,157.91 -34.07,0 -65.63,-10.79 -91.43,-29.15 -14.34,13.11 -65.89,65.54 -74.9,74.29 -4.24,4.15 -9.96,6.49 -15.84,7.07l-5.55 0c-3.49,-0.33 -6.91,-1.27 -9.99,-2.88 -3.38,-1.73 -4.81,-3 -7.45,-5.63 -5.01,-5.06 -7.77,-11.31 -8.51,-17.52l0 -6.62c0.62,-5.15 2.63,-9.92 6,-13.62 11.15,-12.33 64.28,-64.6 75.92,-76.79 -16.53,-24.96 -26.16,-54.88 -26.16,-87.06 0,-87.21 70.7,-157.91 157.91,-157.91zm0 52.27c58.34,0 105.64,47.29 105.64,105.64 0,58.34 -47.3,105.64 -105.64,105.64 -58.35,0 -105.64,-47.3 -105.64,-105.64 0,-58.35 47.29,-105.64 105.64,-105.64z"/>
 </g>
</svg>
