<?xml version="1.0" encoding="UTF-8"?>
<!DOCTYPE svg PUBLIC "-//W3C//DTD SVG 1.1//EN" "http://www.w3.org/Graphics/SVG/1.1/DTD/svg11.dtd">
<!-- Creator: CorelDRAW 2019 (64-Bit) -->
<svg xmlns="http://www.w3.org/2000/svg" xml:space="preserve" width="99.6076mm" height="86.4578mm" version="1.1" style="shape-rendering:geometricPrecision; text-rendering:geometricPrecision; image-rendering:optimizeQuality; fill-rule:evenodd; clip-rule:evenodd"
viewBox="0 0 9416.05 8172.98"
 xmlns:xlink="http://www.w3.org/1999/xlink">
 <defs>
  <style type="text/css">
   <![CDATA[
    .fil0 {fill:#2B2A29;fill-rule:nonzero}
   ]]>
  </style>
 </defs>
 <g id="Слой_x0020_1">
  <metadata id="CorelCorpID_0Corel-Layer"/>
  <path class="fil0" d="M266.79 2279.29l2246.02 0 3374.31 -2279.29 0 8172.98 -3374.32 -2279.29 -2512.8 0 0 -3614.41 266.79 0zm6891.92 -1467.28c230.1,87.56 450.17,199.91 657.05,333.99 209.57,135.81 402.08,291.44 574.35,463.71 321.82,321.81 581.78,707.83 760.04,1138.21 171.33,413.63 265.9,865.81 265.9,1338.57 0,472.75 -94.57,924.93 -265.9,1338.57 -178.27,430.37 -438.22,816.39 -760.04,1138.21 -172.27,172.27 -364.78,327.89 -574.34,463.71 -206.88,134.08 -426.94,246.43 -657.06,334l-361.62 137.61 0 -590.15 171.95 -65.88c195.37,-74.84 379.46,-168.83 549.79,-279.49 171.68,-111.53 332.79,-242.55 480.65,-390.41 273.12,-273.12 492.5,-597.73 641.31,-956.97 143.55,-346.57 222.77,-727.89 222.77,-1129.19 0,-401.3 -79.24,-782.64 -222.77,-1129.19 -148.8,-359.24 -368.19,-683.85 -641.31,-956.97 -147.89,-147.89 -308.99,-278.91 -480.66,-390.43 -170.33,-110.65 -354.41,-204.63 -549.79,-279.47l-171.95 -65.86 0 -590.15 361.62 137.59zm48.98 1251.13c72.21,46.28 142.46,96.91 210.37,151.58 70.78,56.96 135.51,114.79 193.88,173.16 434.7,434.7 703.61,1035.28 703.61,1698.61 0,323.68 -64.93,633.72 -182.56,917.71 -122.48,295.69 -300.7,560.54 -521.05,780.9 -58.37,58.37 -123.11,116.21 -193.88,173.16 -67.9,54.66 -138.16,105.3 -210.37,151.58l-410.6 263.14 0 -653.63 121.93 -79.13c54.65,-35.46 107.23,-73.64 157.46,-114.31 46.87,-37.94 95.24,-81.84 144.84,-131.44 171.65,-171.65 309.29,-375.08 402.32,-599.67 89.83,-216.9 139.43,-456.08 139.43,-708.31 0,-252.24 -49.6,-491.42 -139.43,-708.32 -93.03,-224.59 -230.67,-428.01 -402.32,-599.66 -49.6,-49.6 -97.97,-93.49 -144.84,-131.44 -50.23,-40.67 -102.81,-78.85 -157.46,-114.31l-121.93 -79.12 0 -653.63 410.6 263.13zm-4346.95 624.32l0 2798.06 2492.81 1683.86 0 -6165.78 -2492.81 1683.86zm-533.57 125.4l-1793.58 0 0 2547.26 1793.58 0 0 -2547.26z"/>
 </g>
</svg>
