<?xml version="1.0" encoding="UTF-8"?>
<!DOCTYPE svg PUBLIC "-//W3C//DTD SVG 1.1//EN" "http://www.w3.org/Graphics/SVG/1.1/DTD/svg11.dtd">
<!-- Creator: CorelDRAW 2019 (64-Bit) -->
<svg xmlns="http://www.w3.org/2000/svg" xml:space="preserve" width="104.796mm" height="86.4578mm" version="1.1" style="shape-rendering:geometricPrecision; text-rendering:geometricPrecision; image-rendering:optimizeQuality; fill-rule:evenodd; clip-rule:evenodd"
viewBox="0 0 10422.59 8598.72"
 xmlns:xlink="http://www.w3.org/1999/xlink">
 <defs>
  <style type="text/css">
   <![CDATA[
    .fil0 {fill:#2B2A29;fill-rule:nonzero}
   ]]>
  </style>
 </defs>
 <g id="Слой_x0020_1">
  <metadata id="CorelCorpID_0Corel-Layer"/>
  <path class="fil0" d="M280.68 2398.02l2363.02 0 3550.08 -2398.02 0 8598.72 -3550.09 -2398.02 -2643.69 0 0 -3802.69 280.68 0zm10141.91 531.99l-1369.36 1369.37 1369.36 1369.36 -396.91 396.91 -1369.36 -1369.36 -1369.37 1369.36 -396.91 -396.91 1369.37 -1369.36 -1369.37 -1369.37 396.91 -396.91 1369.37 1369.37 1369.36 -1369.37 396.91 396.91zm-7412.84 -102.55l0 2943.81 2622.67 1771.58 0 -6486.96 -2622.67 1771.58zm-561.37 131.93l-1887.01 0 0 2679.95 1887.01 0 0 -2679.95z"/>
 </g>
</svg>
