<?xml version="1.0" encoding="UTF-8"?>
<!DOCTYPE svg PUBLIC "-//W3C//DTD SVG 1.1//EN" "http://www.w3.org/Graphics/SVG/1.1/DTD/svg11.dtd">
<!-- Creator: CorelDRAW 2019 (64-Bit) -->
<svg xmlns="http://www.w3.org/2000/svg" xml:space="preserve" width="96.4076mm" height="86.4578mm" version="1.1" style="shape-rendering:geometricPrecision; text-rendering:geometricPrecision; image-rendering:optimizeQuality; fill-rule:evenodd; clip-rule:evenodd"
viewBox="0 0 8089.51 7254.63"
 xmlns:xlink="http://www.w3.org/1999/xlink">
 <defs>
  <style type="text/css">
   <![CDATA[
    .fil0 {fill:#2B2A29;fill-rule:nonzero}
   ]]>
  </style>
 </defs>
 <g id="Слой_x0020_1">
  <metadata id="CorelCorpID_0Corel-Layer"/>
  <path class="fil0" d="M236.81 2023.17l1993.65 0 2995.16 -2023.17 0 7254.63 -2995.16 -2023.17 -2230.45 0 0 -3208.28 236.81 0zm5849 -1302.41c204.24,77.72 399.59,177.44 583.22,296.46 186.02,120.55 356.9,258.69 509.82,411.61 285.66,285.65 516.41,628.3 674.64,1010.31 152.08,367.15 236.02,768.53 236.02,1188.17 0,419.63 -83.94,821 -236.02,1188.17 -158.24,382.01 -388.98,724.66 -674.64,1010.31 -152.92,152.92 -323.79,291.05 -509.81,411.6 -183.64,119.02 -378.97,218.74 -583.23,296.47l-320.99 122.15 0 -523.84 152.63 -58.48c173.42,-66.43 336.82,-149.86 488.02,-248.09 152.39,-99 295.39,-215.29 426.65,-346.55 242.43,-242.43 437.16,-530.57 569.25,-849.44 127.42,-307.63 197.74,-646.1 197.74,-1002.31 0,-356.21 -70.33,-694.69 -197.74,-1002.31 -132.08,-318.87 -326.82,-607.01 -569.25,-849.44 -131.27,-131.27 -274.27,-247.57 -426.65,-346.56 -151.19,-98.22 -314.58,-181.64 -488.01,-248.07l-152.63 -58.46 0 -523.84 320.99 122.13zm43.47 1110.55c64.1,41.08 126.45,86.02 186.73,134.55 62.82,50.56 120.28,101.89 172.1,153.71 385.86,385.86 624.55,918.95 624.55,1507.74 0,287.31 -57.64,562.51 -162.05,814.59 -108.72,262.47 -266.91,497.56 -462.5,693.15 -51.81,51.81 -109.28,103.15 -172.1,153.71 -60.27,48.52 -122.63,93.47 -186.73,134.55l-364.46 233.57 0 -580.18 108.23 -70.24c48.51,-31.47 95.18,-65.37 139.77,-101.46 41.6,-33.68 84.54,-72.64 128.57,-116.67 152.36,-152.36 274.53,-332.94 357.11,-532.29 79.74,-192.53 123.77,-404.83 123.77,-628.73 0,-223.9 -44.03,-436.2 -123.77,-628.73 -82.58,-199.35 -204.75,-379.92 -357.11,-532.28 -44.03,-44.03 -86.96,-82.99 -128.57,-116.67 -44.59,-36.1 -91.26,-69.99 -139.77,-101.46l-108.23 -70.23 0 -580.18 364.46 233.56zm-3590 554.17l0 2483.65 2212.71 1494.65 0 -5472.96 -2212.71 1494.65zm-473.62 111.31l-1592.05 0 0 2261.04 1592.05 0 0 -2261.04z"/>
 </g>
</svg>
